HIERARCHY
ROOT ui
{
	 OFFSET 0 0 0
	 CHANNELS 3 XPosition YPosition Z Position
	 EndSite
	 {
	 OFFSET 0 -1 0
	 }
}
ROOT li
{
	 OFFSET 0 0 0
	 CHANNELS 3 XPosition YPosition Z Position
	 EndSite
	 {
	 OFFSET 0 -1 0
	 }
}
ROOT ul
{
	 OFFSET 0 0 0
	 CHANNELS 3 XPosition YPosition Z Position
	 EndSite
	 {
	 OFFSET 0 -1 0
	 }
}
ROOT ll
{
	 OFFSET 0 0 0
	 CHANNELS 3 XPosition YPosition Z Position
	 EndSite
	 {
	 OFFSET 0 -1 0
	 }
}
ROOT tt
{
	 OFFSET 0 0 0
	 CHANNELS 3 XPosition YPosition Z Position
	 EndSite
	 {
	 OFFSET 0 -1 0
	 }
}
ROOT tb
{
	 OFFSET 0 0 0
	 CHANNELS 3 XPosition YPosition Z Position
	 EndSite
	 {
	 OFFSET 0 -1 0
	 }
}
ROOT td
{
	 OFFSET 0 0 0
	 CHANNELS 3 XPosition YPosition Z Position
	 EndSite
	 {
	 OFFSET 0 -1 0
	 }
}
ROOT v
{
	 OFFSET 0 0 0
	 CHANNELS 3 XPosition YPosition Z Position
	 EndSite
	 {
	 OFFSET 0 -1 0
	 }
}
ROOT bn
{
	 OFFSET 0 0 0
	 CHANNELS 3 XPosition YPosition Z Position
	 EndSite
	 {
	 OFFSET 0 -1 0
	 }
}
MOTION
Frames: 16
Frame Time: 0.002
-0.03666604995727539	-0.0029737319946289064	0		0.46897808837890625	-2.462628662109375	0		-0.9866524658203125	0.004153252124786377	0		-0.5874762573242187	-2.41313916015625	0		2.484081787109375	-0.3521790771484375	0		3.891984130859375	-0.21213926696777344	0		5.15634912109375	-0.1132706069946289	0		5.8314443359375	0.3266744689941406	0		-0.2642268371582031	5.90841259765625	0		
-0.03264959716796875	-2.325199991464615E-4	0		0.44606646728515625	-2.455539306640625	0		-0.98073828125	-0.0011376160383224487	0		-0.5783653564453125	-2.40446630859375	0		2.478101806640625	-0.3492911376953125	0		3.90177197265625	-0.22744329833984375	0		5.16532763671875	-0.11355349731445312	0		5.8349228515625	0.31244366455078126	0		-0.298354248046875	5.9036376953125	0		
0.0442824592590332	-0.0024525070190429686	0		0.4989852600097656	-2.4614462890625	0		-0.989888427734375	-0.009274978637695313	0		-0.564431396484375	-2.408891357421875	0		2.49292919921875	-0.35968377685546876	0		3.90089208984375	-0.21461317443847655	0		5.15138330078125	-0.10553890228271484	0		5.8228916015625	0.3367716674804688	0		-0.2644282531738281	5.9079609375	0		
-0.032762874603271486	-7.398219704627991E-4	0		0.46107861328125	-2.453220458984375	0		-0.9939904174804688	-0.012512821197509766	0		-0.5702781372070312	-2.396095703125	0		2.508744140625	-0.3701006774902344	0		3.9016669921875	-0.22780880737304687	0		5.15314306640625	-0.11972032165527344	0		5.82339697265625	0.30536599731445313	0		-0.2656066284179687	5.9087001953125	0		
0.031227800369262697	0.003151632070541382	0		0.4761302490234375	-2.449693115234375	0		-0.986236083984375	-0.02693635559082031	0		-0.5702777099609375	-2.396406982421875	0		2.467601318359375	-0.3768033142089844	0		3.865811767578125	-0.2115371551513672	0		5.15615478515625	-0.1139073257446289	0		5.81621875	0.3053627014160156	0		-0.26584219360351563	5.90839794921875	0		
-0.032889999389648435	-0.0013566210269927979	0		0.41707376098632815	-2.45624853515625	0		-0.9803583984375	-0.03236671447753906	0		-0.5573292236328125	-2.4029111328125	0		2.464428955078125	-0.386996826171875	0		3.87656884765625	-0.22685787963867188	0		5.15609912109375	-0.11404423522949218	0		5.8161787109375	0.3051673278808594	0		-0.2972227478027344	5.8994619140625	0		
0.044051158905029295	-0.003671915054321289	0		0.474134033203125	-2.45729248046875	0		-0.9704105834960938	-0.03387732315063476	0		-0.610186767578125	-2.396609375	0		2.455330322265625	-0.39312014770507814	0		3.869803955078125	-0.2059482116699219	0		5.1609501953125	-0.1232288818359375	0		5.8304169921875	0.3045693054199219	0		-0.24830448913574218	5.91548681640625	0		
-0.02989018440246582	0.0018964749574661255	0		0.4383884582519531	-2.446180419921875	0		-0.974468994140625	-0.03823873901367188	0		-0.5470185546875	-2.392795166015625	0		2.46125146484375	-0.4004346923828125	0		3.85452880859375	-0.22792660522460936	0		5.14889697265625	-0.12718144989013672	0		5.8196611328125	0.2943970031738281	0		-0.265723876953125	5.90632568359375	0		
0.04407036972045898	-0.004411445140838623	0		0.46145758056640623	-2.454822998046875	0		-0.986574462890625	-0.04952548217773438	0		-0.5719112548828125	-2.39789501953125	0		2.429231201171875	-0.4062722473144531	0		3.849658935546875	-0.22102198791503908	0		5.1440458984375	-0.11820185089111328	0		5.8083818359375	0.3154284362792969	0		-0.1337479248046875	5.9282763671875	0		
-0.03283525085449219	-0.0028467350006103516	0		0.46956936645507813	-2.46528759765625	0		-0.9864954833984375	-0.04998626708984375	0		-0.533693603515625	-2.39980126953125	0		2.4470458984375	-0.42973101806640623	0		3.85158740234375	-0.23418922424316407	0		5.14594287109375	-0.13328399658203124	0		5.80548974609375	0.29646185302734374	0		-0.301396728515625	5.901951171875	0		
0.034399620056152345	0.004914050102233887	0		0.4719012451171875	-2.463685791015625	0		-0.9744879760742188	-0.060612964630126956	0		-0.5903619384765625	-2.397542724609375	0		2.421046875	-0.442638427734375	0		3.837857421875	-0.22414492797851562	0		5.14915478515625	-0.12735575103759766	0		5.809759765625	0.27560015869140625	0		-0.26664959716796877	5.9050888671875	0		
-0.03251980972290039	-0.003674372911453247	0		0.44734454345703123	-2.458757080078125	0		-0.9742967529296875	-0.06110469055175781	0		-0.504104248046875	-2.408060302734375	0		2.437131591796875	-0.45405929565429687	0		3.842962890625	-0.23231959533691407	0		5.1493515625	-0.1273666000366211	0		5.80864794921875	0.31031289672851564	0		-0.30197332763671875	5.9010830078125	0		
0.038870994567871096	0.007036108016967774	0		0.4648714599609375	-2.453346923828125	0		-0.9740422973632813	-0.06160545349121094	0		-0.5834523315429687	-2.391546630859375	0		2.453295654296875	-0.46446932983398437	0		3.8391708984375	-0.23736830139160156	0		5.14653857421875	-0.1333181915283203	0		5.80590869140625	0.29667532348632814	0		-0.282280029296875	5.89539453125	0		
-0.04184347152709961	0.004601152896881103	0		0.46336740112304686	-2.45670166015625	0		-0.9777684936523438	-0.06606243896484375	0		-0.5130276489257812	-2.40086572265625	0		2.46953076171875	-0.47486703491210935	0		3.836435791015625	-0.24341429138183593	0		5.1427939453125	-0.1392371826171875	0		5.80682861328125	0.2916223449707031	0		-0.14922470092773438	5.91533642578125	0		
0.04541752624511719	-0.006866786956787109	0		0.4698221435546875	-2.4701494140625	0		-0.9814223022460937	-0.07052151489257813	0		-0.5374795532226563	-2.40602978515625	0		2.491743896484375	-0.49332412719726565	0		3.79782470703125	-0.24501448059082032	0		5.14319482421875	-0.13918768310546875	0		5.7999794921875	0.29202252197265627	0		-0.2977611999511719	5.8836865234375	0		
-0.0409929084777832	0.003760240077972412	0		0.4725497741699219	-2.467544677734375	0		-0.9750125122070312	-0.07609835052490234	0		-0.5248778686523438	-2.413636962890625	0		2.399937255859375	-0.5194083862304687	0		3.80421484375	-0.2531488494873047	0		5.13057666015625	-0.14697080993652345	0		5.80324609375	0.30772134399414064	0		-0.31579324340820314	5.887458984375	0		
